<?xml version="1.0" standalone="no"?>
<!DOCTYPE svg PUBLIC "-//W3C//DTD SVG 20010904//EN"
 "http://www.w3.org/TR/2001/REC-SVG-20010904/DTD/svg10.dtd">
<svg version="1.0" xmlns="http://www.w3.org/2000/svg"
 width="618.000000pt" height="618.000000pt" viewBox="0 0 618.000000 618.000000"
 preserveAspectRatio="xMidYMid meet">
<metadata>
Created by potrace 1.11, written by Peter Selinger 2001-2013
</metadata>
<g transform="translate(0.000000,618.000000) scale(0.100000,-0.100000)"
fill="#000000" stroke="none">
<path d="M4858 6160 c-117 -62 -138 -220 -41 -312 118 -112 319 -23 322 142 1
69 -58 155 -122 179 -44 17 -118 12 -159 -9z"/>
<path d="M4380 5667 c-230 -65 -301 -350 -129 -515 109 -106 290 -110 404 -10
73 64 98 116 103 215 4 78 2 88 -27 148 -33 67 -85 117 -153 148 -50 23 -143
30 -198 14z"/>
<path d="M3403 5478 c-43 -19 -136 -105 -127 -119 2 -4 0 -10 -5 -14 -9 -5
-27 -91 -23 -106 1 -4 3 -23 5 -43 2 -19 9 -42 16 -49 6 -8 9 -16 6 -19 -3 -3
12 -24 33 -46 22 -23 38 -43 37 -44 -1 -2 7 -12 18 -23 11 -11 16 -14 12 -6
-5 9 -4 12 3 7 7 -4 12 -14 12 -22 0 -8 5 -12 10 -9 6 3 10 -2 10 -11 0 -10 2
-15 5 -12 3 3 20 -9 38 -26 66 -64 71 -50 -78 -200 -75 -75 -141 -136 -147
-136 -6 0 -9 -3 -5 -6 8 -8 -25 -44 -35 -38 -4 3 -8 1 -8 -4 0 -13 -227 -242
-240 -242 -6 0 -10 -4 -10 -10 0 -5 -41 -50 -91 -99 -69 -69 -95 -88 -112 -85
-54 10 -68 13 -75 18 -4 2 -28 8 -52 11 -25 4 -56 9 -70 12 -94 15 -132 17
-275 17 -165 0 -213 -4 -342 -28 -18 -3 -47 -8 -65 -11 -17 -3 -35 -8 -40 -11
-4 -3 -18 -7 -29 -9 -23 -5 -84 -23 -109 -32 -8 -4 -18 -7 -22 -8 -5 -2 -10
-4 -13 -5 -3 -1 -9 -4 -15 -5 -5 -1 -13 -4 -17 -5 -5 -1 -11 -2 -15 -1 -5 0
-8 -4 -8 -10 0 -5 -4 -7 -10 -4 -5 3 -10 1 -10 -5 0 -6 -4 -9 -8 -6 -5 3 -27
-6 -51 -20 -24 -13 -47 -21 -52 -18 -5 3 -12 -2 -15 -10 -3 -9 -10 -13 -15
-10 -5 3 -9 0 -9 -6 0 -6 -4 -9 -9 -6 -4 3 -16 -3 -26 -14 -10 -11 -22 -17
-26 -14 -5 3 -9 0 -9 -6 0 -6 -4 -9 -8 -6 -5 3 -20 -6 -34 -19 -14 -13 -28
-22 -30 -19 -3 2 -17 -7 -32 -21 -14 -13 -29 -25 -31 -25 -3 0 -10 0 -15 0 -6
0 -9 -5 -8 -12 2 -7 -2 -12 -9 -13 -6 0 -21 -11 -32 -24 -12 -13 -21 -21 -21
-17 0 4 -10 -2 -22 -14 -12 -11 -25 -20 -30 -20 -4 0 -7 -5 -6 -12 2 -7 -2
-12 -8 -13 -14 0 -134 -120 -134 -135 0 -6 -4 -8 -10 -5 -5 3 -10 1 -10 -4 0
-6 -8 -19 -17 -29 -40 -42 -73 -82 -66 -82 4 0 -2 -7 -13 -15 -10 -8 -16 -15
-12 -15 4 0 -4 -12 -17 -26 -14 -15 -25 -33 -25 -40 0 -8 -4 -14 -9 -14 -5 0
-13 -9 -16 -20 -3 -11 -12 -26 -18 -33 -17 -18 -37 -55 -37 -67 0 -6 -9 -20
-20 -32 -10 -12 -17 -25 -14 -29 2 -4 0 -10 -6 -14 -6 -4 -8 -11 -5 -16 4 -5
2 -9 -2 -9 -8 0 -34 -58 -34 -77 -1 -5 -4 -12 -9 -18 -6 -8 -52 -136 -55 -155
-1 -3 -4 -14 -8 -25 -3 -11 -8 -31 -11 -45 -3 -14 -8 -36 -11 -50 -3 -14 -8
-41 -10 -60 -3 -19 -7 -44 -10 -55 -10 -51 -19 -180 -17 -275 1 -100 8 -215
12 -215 2 0 7 -42 13 -102 1 -13 6 -23 10 -23 4 0 7 -6 5 -13 -3 -19 13 -91
24 -104 5 -7 8 -16 5 -20 -3 -4 0 -19 6 -33 5 -14 12 -31 13 -37 2 -7 6 -19 7
-25 2 -7 9 -26 15 -41 7 -15 15 -39 18 -52 3 -14 10 -25 15 -25 5 0 9 -7 9
-15 0 -19 60 -138 72 -143 5 -2 6 -7 3 -12 -3 -4 2 -13 10 -20 8 -7 15 -19 15
-26 0 -8 5 -14 10 -14 6 0 10 -7 10 -15 0 -8 5 -15 11 -15 5 0 8 -4 5 -8 -3
-5 5 -20 17 -34 12 -14 29 -36 37 -49 8 -13 25 -33 36 -45 12 -13 19 -25 16
-28 -3 -3 0 -6 6 -6 6 0 14 -9 17 -20 3 -11 14 -20 22 -20 9 0 14 -3 10 -6 -3
-3 10 -22 29 -42 44 -46 44 -70 2 -63 -5 0 -8 -4 -8 -11 0 -6 -3 -9 -6 -5 -3
3 -28 -8 -55 -24 -28 -16 -53 -29 -56 -29 -3 0 -21 -11 -40 -26 -18 -14 -33
-22 -33 -17 0 4 -7 -3 -16 -15 -8 -12 -20 -22 -25 -22 -12 0 -79 -71 -79 -83
0 -5 -5 -5 -10 -2 -6 4 -9 3 -8 -2 1 -4 -4 -19 -12 -33 -8 -14 -15 -29 -17
-35 -17 -65 -18 -83 -6 -119 7 -21 10 -43 6 -49 -3 -6 -1 -7 5 -3 7 4 12 2 12
-4 0 -19 64 -97 99 -121 19 -13 40 -29 46 -36 16 -15 95 -62 118 -70 9 -3 17
-10 17 -15 0 -5 4 -7 9 -3 5 3 15 0 23 -7 7 -7 20 -14 28 -16 8 -2 17 -7 20
-10 3 -4 14 -9 25 -11 11 -1 29 -8 40 -14 11 -6 22 -12 25 -12 3 -1 18 -7 33
-13 16 -7 32 -12 37 -12 5 0 21 -5 37 -12 15 -6 33 -12 40 -14 15 -3 83 -24
103 -31 22 -9 32 -11 65 -18 17 -3 37 -8 45 -12 8 -3 22 -7 30 -8 8 -2 26 -6
40 -10 28 -7 48 -11 100 -20 19 -3 42 -9 50 -12 8 -3 24 -7 35 -8 19 -3 190
-31 230 -39 11 -2 47 -7 80 -11 32 -4 67 -8 77 -10 9 -2 43 -6 75 -10 32 -3
69 -8 83 -10 14 -2 59 -6 100 -10 73 -5 151 -12 255 -21 91 -9 908 -12 995 -4
47 5 130 11 185 15 160 11 263 20 315 30 14 2 54 7 90 10 36 4 72 8 80 10 8 2
35 7 60 10 25 3 108 17 185 32 77 14 147 27 155 28 8 1 22 5 30 8 8 2 67 17
130 33 63 15 149 38 190 52 41 13 80 25 85 27 13 3 40 13 94 37 24 11 51 21
60 23 10 2 33 12 51 24 18 11 37 18 42 15 4 -3 8 -1 8 4 0 9 50 37 63 34 4 -1
7 3 7 8 0 6 7 10 15 10 8 0 15 4 15 8 0 4 15 16 33 27 17 10 36 24 40 32 4 7
12 13 17 13 12 0 50 37 44 42 -2 3 7 15 21 28 14 13 25 29 25 37 0 7 4 13 8
13 11 0 12 9 16 92 2 38 0 68 -5 68 -5 0 -11 11 -15 25 -3 13 -12 29 -20 36
-8 6 -13 14 -11 18 3 6 -69 80 -79 80 -5 1 -25 16 -55 44 -10 9 -21 17 -24 17
-3 0 -10 0 -16 0 -5 0 -7 5 -4 10 4 6 3 9 -2 8 -12 -4 -93 35 -93 45 0 4 -4 5
-10 2 -5 -3 -10 -1 -10 6 0 7 -3 9 -6 6 -4 -4 -19 0 -33 7 -25 14 -101 49
-111 52 -3 1 -20 5 -37 9 -18 4 -33 12 -33 17 0 5 -5 6 -10 3 -6 -4 -18 -1
-27 7 -9 7 -19 12 -22 11 -3 -1 -28 5 -56 13 -27 8 -61 17 -75 20 -14 3 -54
13 -90 24 -65 18 -189 46 -245 55 -16 3 -43 8 -60 11 -16 4 -37 8 -45 9 -8 1
-35 6 -60 10 -101 16 -157 25 -200 30 -25 3 -58 7 -75 10 -16 2 -66 7 -110 10
-44 4 -89 9 -100 13 -11 3 -41 5 -67 4 -53 -2 -55 0 -28 43 35 55 64 110 62
118 -1 4 3 7 8 7 6 0 10 6 10 13 0 7 9 29 19 49 11 19 17 39 14 42 -4 3 -2 6
4 6 10 0 28 46 25 62 -1 5 3 8 9 8 6 0 9 6 6 14 -3 7 -1 18 4 23 9 9 20 44 21
71 1 6 5 12 9 12 4 0 8 8 8 18 1 35 5 52 11 52 3 0 6 8 7 18 3 28 20 117 23
117 3 0 7 33 15 115 9 88 12 370 5 370 -4 0 -6 10 -7 23 0 28 -10 94 -17 127
-3 14 -8 36 -10 50 -2 14 -10 47 -17 74 -12 47 -11 50 12 70 13 12 25 25 26
29 3 12 62 65 67 60 2 -3 7 5 11 16 3 11 15 23 26 26 11 4 18 9 15 12 -7 7 17
32 26 27 4 -2 9 5 13 15 3 11 15 23 26 26 11 4 18 9 15 12 -7 7 17 32 26 27 4
-2 9 5 13 15 3 11 15 23 26 26 11 4 19 9 16 11 -5 6 49 65 58 64 4 -1 21 18
39 41 18 22 37 40 41 39 4 -1 15 10 25 24 9 15 19 24 22 20 4 -3 9 4 13 15 3
11 15 23 26 26 11 4 18 9 15 12 -7 7 17 32 26 27 4 -2 9 5 13 15 3 11 15 23
26 26 11 4 19 9 16 11 -5 5 49 65 58 64 3 0 17 12 30 27 l25 28 19 -22 c10
-12 21 -19 25 -16 3 4 6 2 6 -3 0 -6 7 -19 16 -30 8 -10 12 -13 8 -5 -5 9 -3
12 4 7 7 -4 12 -14 12 -22 0 -8 5 -12 10 -9 6 3 10 -2 10 -11 0 -10 2 -15 5
-12 3 3 30 -18 60 -46 30 -28 61 -57 69 -63 16 -13 96 -35 96 -26 0 3 6 1 13
-5 8 -7 18 -7 27 -2 8 5 17 7 21 4 4 -2 20 1 36 8 30 12 38 15 51 17 5 0 29
20 54 44 52 48 86 127 82 192 -1 22 -3 41 -4 43 -1 1 -3 5 -4 10 -1 4 -6 22
-10 40 -4 17 -12 32 -17 32 -5 0 -13 8 -16 18 -4 9 -380 390 -835 845 -778
778 -865 860 -900 849 -5 -1 -8 2 -8 6 0 17 -124 9 -167 -10z"/>
<path d="M5157 5219 c-175 -41 -321 -202 -349 -387 -47 -302 229 -573 530
-523 318 54 490 410 332 686 -35 62 -130 154 -188 184 -90 46 -227 63 -325 40z"/>
</g>
</svg>
